<svg width="14" height="17" fill="none" xmlns="http://www.w3.org/2000/svg">
  <path d="M12.571 1.396h.858c.16 0 .285-.125.285-.285V.539a.282.282 0 0 0-.285-.286H.286A.282.282 0 0 0 0 .54v.572c0 .16.125.285.286.285h.857c0 3.304 1.58 5.697 3.33 6.857-1.75 1.161-3.33 3.554-3.33 6.858H.286a.282.282 0 0 0-.286.285v.572c0 .16.125.285.286.285h13.143c.16 0 .285-.125.285-.285v-.572a.282.282 0 0 0-.285-.285h-.858c0-3.304-1.58-5.697-3.33-6.858 1.75-1.16 3.33-3.553 3.33-6.857Zm-1.142 0a7.915 7.915 0 0 1-.76 3.429H3.046a7.915 7.915 0 0 1-.76-3.429h9.144Zm-.51 10.857H2.796c.66-1.723 1.848-2.946 3.035-3.428h2.054c1.187.482 2.375 1.705 3.036 3.429Z" fill="#fff"/>
</svg>
