<svg width="19" height="19" fill="none" xmlns="http://www.w3.org/2000/svg">
  <path d="M4.198 11.304 2.83 17.222a.916.916 0 0 0 1.402.97l4.995-3.33 4.994 3.33a.918.918 0 0 0 1.392-1.015l-1.678-5.87 4.16-3.744a.917.917 0 0 0-.54-1.596l-5.23-.416L10.063.54a.916.916 0 0 0-1.67 0l-2.264 5.01L.9 5.966a.917.917 0 0 0-.568 1.571l3.866 3.767Zm2.617-3.968a.916.916 0 0 0 .763-.537l1.65-3.652 1.65 3.652a.915.915 0 0 0 .763.537l3.643.29-3 2.7a.919.919 0 0 0-.269.933l1.15 4.022-3.427-2.284a.913.913 0 0 0-1.017 0L5.14 15.384l.963-4.17a.917.917 0 0 0-.253-.862L3.063 7.635l3.752-.299Z" fill="#F3CD03"/>
</svg>
