<svg width="18" height="14" fill="none" xmlns="http://www.w3.org/2000/svg">
  <path d="m9.482 5.61 1.17.545 1.74-.518V4.423c0-2.062-1.74-3.714-3.82-3.714C6.5.709 4.75 2.352 4.75 4.396v5.536c0 .509-.41.91-.91.91s-.911-.401-.911-.91v-2.34H0v2.376a3.83 3.83 0 0 0 3.83 3.83c2.099 0 3.83-1.687 3.83-3.777V4.557c0-.5.411-.91.911-.91s.911.41.911.91v1.054Zm4.732 1.983v2.455c0 .5-.41.902-.91.902s-.911-.402-.911-.902v-2.41l-1.741.517-1.17-.544v2.393c0 2.098 1.723 3.794 3.83 3.794a3.83 3.83 0 0 0 3.83-3.83V7.593h-2.928Z" fill="#fff"/>
</svg>
