<!-- Generated by IcoMoon.io -->
<svg version="1.1" xmlns="http://www.w3.org/2000/svg" width="39" height="32" viewBox="0 0 39 32">
<title>check</title>
<path fill="#fff" d="M38.809 1.462c-0.353-0.364-0.847-0.59-1.393-0.59s-1.040 0.226-1.393 0.59l-0 0-23.591 24.094-9.068-9.26c-0.353-0.364-0.847-0.59-1.393-0.59s-1.040 0.226-1.393 0.59l-0 0c-0.356 0.367-0.576 0.869-0.576 1.422s0.22 1.054 0.576 1.422l-0-0.001 10.462 10.683c0.768 0.788 2.018 0.788 2.786 0l24.985-25.514c0.356-0.367 0.576-0.869 0.576-1.422s-0.22-1.054-0.576-1.422l0.001 0.001z"></path>
</svg>
