<!-- Generated by IcoMoon.io -->
<svg version="1.1" xmlns="http://www.w3.org/2000/svg" width="26" height="32" viewBox="0 0 26 32">
<title>clock</title>
<path fill="#fff" d="M23.663 2.628h1.615c0.301 0 0.536-0.235 0.536-0.536v-1.077c0-0.002 0-0.005 0-0.008 0-0.293-0.238-0.531-0.531-0.531-0.002 0-0.004 0-0.006 0h-24.739c-0.002-0-0.005-0-0.008-0-0.293 0-0.531 0.238-0.531 0.531 0 0.003 0 0.007 0 0.010v-0 1.077c0 0.301 0.235 0.536 0.538 0.536h1.613c0 6.219 2.974 10.724 6.268 12.907-3.294 2.185-6.268 6.69-6.268 12.909h-1.613c-0.002-0-0.005-0-0.008-0-0.293 0-0.531 0.238-0.531 0.531 0 0.002 0 0.004 0 0.006v-0 1.077c0 0.301 0.235 0.536 0.538 0.536h24.74c0.301 0 0.536-0.235 0.536-0.536v-1.077c0-0.002 0-0.004 0-0.006 0-0.293-0.238-0.531-0.531-0.531-0.002 0-0.004 0-0.006 0h-1.615c0-6.219-2.974-10.724-6.268-12.909 3.294-2.184 6.268-6.688 6.268-12.907zM21.513 2.628c0 0.025 0 0.054 0 0.084 0 2.315-0.528 4.506-1.47 6.46l0.039-0.089h-14.349c-0.903-1.865-1.431-4.056-1.431-6.371 0-0.029 0-0.059 0-0.088l-0 0.005h17.212zM20.553 23.064h-15.29c1.242-3.243 3.479-5.545 5.713-6.453h3.866c2.234 0.907 4.471 3.209 5.715 6.455z"></path>
</svg>
