<!-- Generated by IcoMoon.io -->
<svg version="1.1" xmlns="http://www.w3.org/2000/svg" width="34" height="32" viewBox="0 0 34 32">
<title>heart</title>
<path fill="#fff" d="M17.067 30.101c0.002 0 0.005 0 0.008 0 0.324 0 0.617-0.13 0.831-0.341l-0 0 11.866-11.428c0.171-0.171 4.363-4 4.363-8.572 0-5.581-3.409-8.915-9.105-8.915-3.332 0-6.458 2.628-7.962 4.115-1.504-1.487-4.629-4.115-7.962-4.115-5.696 0-9.105 3.337-9.105 8.915 0 4.572 4.19 8.399 4.343 8.533l11.885 11.467c0.228 0.228 0.533 0.341 0.838 0.341z"></path>
</svg>
