<!-- Generated by IcoMoon.io -->
<svg version="1.1" xmlns="http://www.w3.org/2000/svg" width="31" height="32" viewBox="0 0 31 32">
<title>instagram</title>
<path fill="none" stroke="#02897a" stroke-linejoin="round" stroke-linecap="round" stroke-miterlimit="4" stroke-width="2.56" d="M21.76 2.58h-12.8c-3.535 0-6.4 2.865-6.4 6.4v0 12.8c0 3.535 2.865 6.4 6.4 6.4v0h12.8c3.535 0 6.4-2.865 6.4-6.4v0-12.8c0-3.535-2.865-6.4-6.4-6.4v0z"></path>
<path fill="none" stroke="#02897a" stroke-linejoin="round" stroke-linecap="round" stroke-miterlimit="4" stroke-width="2.56" d="M20.48 14.574c0.041 0.243 0.064 0.523 0.064 0.809 0 2.828-2.292 5.12-5.12 5.12-2.584 0-4.72-1.913-5.070-4.401l-0.003-0.027c-0.030-0.208-0.047-0.448-0.047-0.692 0-2.828 2.292-5.12 5.12-5.12 2.542 0 4.651 1.853 5.052 4.281l0.004 0.030zM22.4 8.34h0.013"></path>
</svg>
