<!-- Generated by IcoMoon.io -->
<svg version="1.1" xmlns="http://www.w3.org/2000/svg" width="35" height="32" viewBox="0 0 35 32">
<title>logo</title>
<path fill="#02bc6b" d="M2.71 29.802c-1.495-0.004-2.705-1.215-2.71-2.709v-9.474h6.82v-0.010h4.099c1.057-0.028 1.951-0.949 1.951-2.032-0.008-1.119-0.913-2.024-2.032-2.032l-10.839 0.002v-2.711c0.004-1.495 1.215-2.705 2.709-2.71h8.13c2.058 0 3.82 0.732 5.256 2.195 1.463 1.436 2.195 3.197 2.195 5.257 0 2.032-0.704 3.793-2.141 5.23s-3.171 2.195-5.202 2.222h-5.528v4.065c-0.004 1.495-1.215 2.705-2.709 2.71h-0z"></path>
<path fill="#02897a" d="M21.706 4.98c2.994 2.908 4.503 6.53 4.503 10.646 0 4.048-1.445 7.665-4.393 10.582l-4.184-3.937c1.834-1.814 2.733-3.998 2.733-6.646 0-2.667-0.927-4.848-2.804-6.671l4.146-3.975z"></path>
<path fill="#035b81" d="M28.112 0c4.312 4.305 6.482 9.643 6.482 15.77 0 6.031-2.083 11.365-6.324 15.68l-4.039-3.946c3.16-3.214 4.707-7.112 4.707-11.734 0-4.669-1.6-8.563-4.828-11.786l4.001-3.984z"></path>
<path fill="#028e37" d="M0 23.050h5.419v4.042c-0.004 1.495-1.215 2.705-2.709 2.71h-0c-1.495-0.004-2.705-1.215-2.71-2.709v-4.043z"></path>
</svg>
