<!-- Generated by IcoMoon.io -->
<svg version="1.1" xmlns="http://www.w3.org/2000/svg" width="32" height="32" viewBox="0 0 32 32">
<title>starfull</title>
<path fill="#f3cd03" d="M30.883 11.094c-0.2-0.576-0.716-0.993-1.335-1.044l-0.006-0-8.808-0.701-3.808-8.436c-0.248-0.541-0.784-0.91-1.407-0.91s-1.16 0.369-1.403 0.901l-0.004 0.010-3.811 8.438-8.808 0.699c-0.798 0.066-1.42 0.73-1.42 1.539 0 0.433 0.178 0.824 0.465 1.104l0 0 6.508 6.346-2.301 9.967c-0.026 0.105-0.040 0.226-0.040 0.35 0 0.853 0.691 1.544 1.544 1.544 0.32 0 0.618-0.097 0.864-0.264l-0.005 0.003 8.411-5.608 8.413 5.608c0.24 0.16 0.535 0.256 0.852 0.256 0.855 0 1.548-0.693 1.548-1.548 0-0.149-0.021-0.292-0.060-0.428l0.003 0.011-2.826-9.886 7.008-6.307c0.314-0.284 0.511-0.694 0.511-1.149 0-0.177-0.030-0.347-0.084-0.506l0.003 0.011z"></path>
</svg>
