<!-- Generated by IcoMoon.io -->
<svg version="1.1" xmlns="http://www.w3.org/2000/svg" width="32" height="32" viewBox="0 0 32 32">
<title>starhole</title>
<path fill="#f3cd03" d="M7.070 19.038l-2.304 9.967c-0.026 0.106-0.041 0.227-0.041 0.352 0 0.852 0.691 1.543 1.543 1.543 0.32 0 0.618-0.098 0.865-0.265l-0.005 0.003 8.413-5.608 8.411 5.608c0.241 0.163 0.538 0.259 0.857 0.259 0.854 0 1.546-0.692 1.546-1.546 0-0.151-0.022-0.296-0.062-0.434l0.003 0.011-2.826-9.886 7.006-6.306c0.315-0.284 0.512-0.693 0.512-1.149 0-0.81-0.623-1.474-1.416-1.539l-0.006-0-8.808-0.701-3.81-8.44c-0.248-0.54-0.784-0.908-1.406-0.908s-1.158 0.368-1.402 0.899l-0.004 0.010-3.813 8.438-8.807 0.701c-0.799 0.065-1.423 0.729-1.423 1.54 0 0.434 0.179 0.825 0.466 1.106l0 0 6.511 6.344zM11.478 12.355c0.573-0.047 1.054-0.4 1.281-0.895l0.004-0.010 2.779-6.151 2.779 6.151c0.231 0.504 0.712 0.858 1.28 0.904l0.005 0 6.136 0.488-5.053 4.547c-0.315 0.284-0.512 0.694-0.512 1.15 0 0.15 0.021 0.295 0.061 0.433l-0.003-0.011 1.937 6.774-5.772-3.847c-0.24-0.163-0.537-0.261-0.856-0.261s-0.616 0.097-0.862 0.264l0.005-0.003-6.031 4.020 1.622-7.023c0.025-0.104 0.039-0.224 0.039-0.347 0-0.433-0.178-0.824-0.465-1.105l-0-0-4.694-4.576 6.319-0.504z"></path>
</svg>
