<!-- Generated by IcoMoon.io -->
<svg version="1.1" xmlns="http://www.w3.org/2000/svg" width="38" height="32" viewBox="0 0 38 32">
<title>twitter</title>
<path fill="none" stroke="#02897a" stroke-linejoin="round" stroke-linecap="round" stroke-miterlimit="4" stroke-width="3.2" d="M36.8 1.616c-1.44 1.028-3.109 1.862-4.9 2.415l-0.124 0.033c-1.321-1.513-3.254-2.464-5.409-2.464-3.959 0-7.168 3.209-7.168 7.168 0 0.034 0 0.068 0.001 0.101l-0-0.005v1.6c-0.132 0.004-0.287 0.006-0.442 0.006-5.748 0-10.832-2.844-13.922-7.201l-0.036-0.053s-6.4 14.4 8 20.8c-2.931 2.013-6.555 3.215-10.46 3.215-0.26 0-0.519-0.005-0.777-0.016l0.037 0.001c14.4 8 32 0 32-18.4 0-0.445-0.045-0.89-0.128-1.328 1.587-1.566 2.752-3.556 3.31-5.787l0.018-0.085z"></path>
</svg>
