<!-- Generated by IcoMoon.io -->
<svg version="1.1" xmlns="http://www.w3.org/2000/svg" width="41" height="32" viewBox="0 0 41 32">
<title>wave</title>
<path fill="#fff" d="M21.673 12.823l2.674 1.246 3.977-1.184v-2.775c0-4.713-3.977-8.489-8.731-8.489-4.736 0-8.736 3.755-8.736 8.427v12.654c0 1.163-0.937 2.080-2.080 2.080s-2.082-0.917-2.082-2.080v-5.349h-6.695v5.431c0 4.835 3.919 8.754 8.754 8.754v0c4.798 0 8.754-3.856 8.754-8.633v-12.489c0-1.143 0.939-2.080 2.082-2.080s2.082 0.937 2.082 2.080v2.409zM32.489 17.355v5.611c0 1.143-0.937 2.062-2.080 2.062s-2.082-0.919-2.082-2.062v-5.509l-3.979 1.182-2.674-1.243v5.47c0 4.795 3.938 8.672 8.754 8.672 4.835 0 8.754-3.919 8.754-8.754v0-5.429h-6.693z"></path>
</svg>
